HIERARCHY
ROOT hip
{
  OFFSET 0 0 0
  CHANNELS 6 Xposition Yposition Zposition Zrotation Yrotation Xrotation
  JOINT abdomen
  {
    OFFSET 0 20.6881 -0.73152
    CHANNELS 3 Zrotation Xrotation Yrotation
    JOINT chest
    {
      OFFSET 0 11.7043 -0.48768
      CHANNELS 3 Zrotation Xrotation Yrotation
      JOINT neck
      {
        OFFSET 0 22.1894 -2.19456
        CHANNELS 3 Zrotation Xrotation Yrotation
        JOINT head
        {
          OFFSET -0.24384 7.07133 1.2192
          CHANNELS 3 Zrotation Xrotation Yrotation
          JOINT leftEye
          {
            OFFSET 4.14528 8.04674 8.04672
            CHANNELS 3 Zrotation Xrotation Yrotation
            End Site
            {
              OFFSET 1 0 0
            }
          }
          JOINT rightEye
          {
            OFFSET -3.6576 8.04674 8.04672
            CHANNELS 3 Zrotation Xrotation Yrotation
            End Site
            {
              OFFSET 1 0 0
            }
          }
        }
      }
      JOINT rCollar
      {
        OFFSET -2.68224 19.2634 -4.8768
        CHANNELS 3 Zrotation Xrotation Yrotation
        JOINT rShldr
        {
          OFFSET -8.77824 -1.95073 1.46304
          CHANNELS 3 Zrotation Xrotation Yrotation
          JOINT rForeArm
          {
            OFFSET -28.1742 -1.7115 0.48768
            CHANNELS 3 Zrotation Xrotation Yrotation
            JOINT rHand
            {
              OFFSET -22.5879 0.773209 7.07136
              CHANNELS 3 Zrotation Xrotation Yrotation
              JOINT rThumb1
              {
                OFFSET -1.2192 -0.487915 3.41376
                CHANNELS 3 Zrotation Xrotation Yrotation
                JOINT rThumb2
                {
                  OFFSET -3.37035 -0.52449 3.41376
                  CHANNELS 3 Zrotation Xrotation Yrotation
                  End Site
                  {
                    OFFSET -1.78271 -1.18214 1.43049
                  }
                }
              }
              JOINT rIndex1
              {
                OFFSET -7.75947 0.938293 5.60832
                CHANNELS 3 Zrotation Xrotation Yrotation
                JOINT rIndex2
                {
                  OFFSET -2.54057 -0.884171 1.56538
                  CHANNELS 3 Zrotation Xrotation Yrotation
                  End Site
                  {
                    OFFSET -1.62519 -0.234802 1.16502
                  }
                }
              }
              JOINT rMid1
              {
                OFFSET -8.24714 1.18213 3.41376
                CHANNELS 3 Zrotation Xrotation Yrotation
                JOINT rMid2
                {
                  OFFSET -3.10165 -0.590103 1.0647
                  CHANNELS 3 Zrotation Xrotation Yrotation
                  End Site
                  {
                    OFFSET -2.48547 -0.328903 0.83742
                  }
                }
              }
              JOINT rRing1
              {
                OFFSET -8.82822 0.546677 1.51678
                CHANNELS 3 Zrotation Xrotation Yrotation
                JOINT rRing2
                {
                  OFFSET -2.60934 -0.819778 -0.0198488
                  CHANNELS 3 Zrotation Xrotation Yrotation
                  End Site
                  {
                    OFFSET -2.33842 -0.294052 0.168128
                  }
                }
              }
              JOINT rPinky1
              {
                OFFSET -8.27202 -0.0477905 -0.4584
                CHANNELS 3 Zrotation Xrotation Yrotation
                JOINT rPinky2
                {
                  OFFSET -1.82734 -0.647385 -0.700984
                  CHANNELS 3 Zrotation Xrotation Yrotation
                  End Site
                  {
                    OFFSET -1.69225 -0.51767 -0.607171
                  }
                }
              }
            }
          }
        }
      }
      JOINT lCollar
      {
        OFFSET 2.68224 19.2634 -4.8768
        CHANNELS 3 Zrotation Xrotation Yrotation
        JOINT lShldr
        {
          OFFSET 8.77824 -1.95073 1.46304
          CHANNELS 3 Zrotation Xrotation Yrotation
          JOINT lForeArm
          {
            OFFSET 28.1742 -1.7115 0.48768
            CHANNELS 3 Zrotation Xrotation Yrotation
            JOINT lHand
            {
              OFFSET 22.5879 0.773209 7.07136
              CHANNELS 3 Zrotation Xrotation Yrotation
              JOINT lThumb1
              {
                OFFSET 1.2192 -0.487915 3.41376
                CHANNELS 3 Zrotation Xrotation Yrotation
                JOINT lThumb2
                {
                  OFFSET 3.37035 -0.52449 3.41376
                  CHANNELS 3 Zrotation Xrotation Yrotation
                  End Site
                  {
                    OFFSET 1.78271 -1.18214 1.43049
                  }
                }
              }
              JOINT lIndex1
              {
                OFFSET 7.75947 0.938293 5.60832
                CHANNELS 3 Zrotation Xrotation Yrotation
                JOINT lIndex2
                {
                  OFFSET 2.54057 -0.884171 1.56538
                  CHANNELS 3 Zrotation Xrotation Yrotation
                  End Site
                  {
                    OFFSET 1.62519 -0.234802 1.16502
                  }
                }
              }
              JOINT lMid1
              {
                OFFSET 8.24714 1.18213 3.41376
                CHANNELS 3 Zrotation Xrotation Yrotation
                JOINT lMid2
                {
                  OFFSET 3.10165 -0.590103 1.0647
                  CHANNELS 3 Zrotation Xrotation Yrotation
                  End Site
                  {
                    OFFSET 2.48547 -0.328903 0.83742
                  }
                }
              }
              JOINT lRing1
              {
                OFFSET 8.82822 0.546677 1.51678
                CHANNELS 3 Zrotation Xrotation Yrotation
                JOINT lRing2
                {
                  OFFSET 2.60934 -0.819778 -0.0198488
                  CHANNELS 3 Zrotation Xrotation Yrotation
                  End Site
                  {
                    OFFSET 2.33842 -0.294052 0.168128
                  }
                }
              }
              JOINT lPinky1
              {
                OFFSET 8.27202 -0.0477905 -0.4584
                CHANNELS 3 Zrotation Xrotation Yrotation
                JOINT lPinky2
                {
                  OFFSET 1.82734 -0.647385 -0.700984
                  CHANNELS 3 Zrotation Xrotation Yrotation
                  End Site
                  {
                    OFFSET 1.69225 -0.51767 -0.607171
                  }
                }
              }
            }
          }
        }
      }
    }
  }
  JOINT rButtock
  {
    OFFSET -8.77824 4.35084 1.2192
    CHANNELS 3 Zrotation Xrotation Yrotation
    JOINT rThigh
    {
      OFFSET 0 -1.70687 -2.19456
      CHANNELS 3 Zrotation Xrotation Yrotation
      JOINT rShin
      {
        OFFSET 0 -36.8199 0.73152
        CHANNELS 3 Zrotation Xrotation Yrotation
        JOINT rFoot
        {
          OFFSET 0.73152 -45.1104 -5.12064
          CHANNELS 3 Zrotation Xrotation Yrotation
          End Site
          {
            OFFSET -1.1221 -3.69964 12.103
          }
        }
      }
    }
  }
  JOINT lButtock
  {
    OFFSET 8.77824 4.35084 1.2192
    CHANNELS 3 Zrotation Xrotation Yrotation
    JOINT lThigh
    {
      OFFSET 0 -1.70687 -2.19456
      CHANNELS 3 Zrotation Xrotation Yrotation
      JOINT lShin
      {
        OFFSET 0 -36.8199 0.73152
        CHANNELS 3 Zrotation Xrotation Yrotation
        JOINT lFoot
        {
          OFFSET -0.73152 -45.1104 -5.12064
          CHANNELS 3 Zrotation Xrotation Yrotation
          End Site
          {
            OFFSET 1.1221 -3.69964 12.103
          }
        }
      }
    }
  }
}
MOTION
Frames:	4
Frame Time:	0.00833333
19.8825 85.1731 33.2189 0.0 0.0 0.0 0.512928 -0.00341808 0.0146931 0.141685 -0.00540188 0.0245502 1.01564e-14 -7.95139e-16 2.42269e-16 3.06719e-14 3.18055e-15 7.36124e-16 -0.0 0.0 0.0 -0.0 0.0 0.0 5.26665e-15 2.32951e-18 3.47873e-16 1.08141e-13 4.96962e-17 3.57812e-15 1.8487e-12 -5.51429e-13 2.54444e-14 2.11317e-11 5.66288e-13 5.08889e-13 4.98477e-11 3.0574e-14 1.18635e-12 8.60698e-11 5.40694e-14 2.04351e-12 4.9852e-11 3.26007e-14 1.17362e-12 7.73091 5.47488 0.417314 4.98476e-11 3.07122e-14 1.18635e-12 2.90554 0.965183 0.102902 4.98563e-11 3.11098e-14 1.18714e-12 10.2786 0.731801 0.0259123 4.98427e-11 3.29983e-14 1.19907e-12 2.22167 -0.733487 -0.20892 5.07048e-15 3.49426e-18 -1.49089e-16 1.05813e-13 -3.72721e-17 2.18663e-15 1.84288e-12 5.56001e-13 6.04305e-14 2.1137e-11 -5.43825e-13 5.12069e-13 4.98533e-11 2.55689e-14 1.20225e-12 8.61087e-11 4.77083e-14 2.0602e-12 4.98484e-11 2.78299e-14 1.20861e-12 -7.73091 5.47488 -0.417314 4.98527e-11 2.61402e-14 1.19589e-12 -2.90554 0.965183 -0.102902 4.98487e-11 2.5842e-14 1.19191e-12 -10.2786 0.731801 -0.0259123 4.9862e-11 2.62396e-14 1.17362e-12 -2.22167 -0.733487 0.20892 -2.03217e-16 0.0 -3.88251e-19 0.86008 -4.41145 -0.0729731 -0.00213175 2.4394 -0.0112578 -0.474517 1.97259 0.0938477 2.03217e-16 0.0 3.88251e-19 -0.0776199 -2.42096 0.0232529 0.00766729 -1.16603 0.0659951 0.465705 3.58744 -0.125205
19.4222 84.3983 18.6709 179.156 7.5977 175.398 -1.16766 3.26381 2.19561 -0.616889 0.0719178 0.666392 4.19063 5.11937 1.36685 -4.27583 -9.91908 1.59498 -0.0 0.0 0.0 -0.0 0.0 0.0 1.24027e-14 2.12833e-14 -3.0039e-15 22.5284 9.02916 -1.39237 -5.89497 -3.12488 8.67229 0.00864641 -2.44042 -0.342679 -5.06282e-11 2.12026e-10 -1.4308e-10 -8.70054e-11 3.66335e-10 -2.48421e-10 -5.06239e-11 2.12027e-10 -1.43089e-10 7.73091 5.47488 0.417314 -5.06299e-11 2.12027e-10 -1.43079e-10 2.90554 0.965183 0.102902 -5.06206e-11 2.12027e-10 -1.43077e-10 10.2786 0.731801 0.0259123 -5.06325e-11 2.12029e-10 -1.43066e-10 2.22167 -0.733487 -0.20892 1.22458e-14 2.12858e-14 -3.44884e-15 -19.8266 7.9885 -1.95842 4.06445 -1.81627 -6.38184 -0.000154549 0.50906 -0.071537 -1.50311e-10 6.53615e-11 7.06225e-11 -2.59515e-10 1.13677e-10 1.22419e-10 -1.50315e-10 6.5363e-11 7.0628e-11 -7.73091 5.47488 -0.417314 -1.50311e-10 6.53629e-11 7.06172e-11 -2.90554 0.965183 -0.102902 -1.50316e-10 6.53625e-11 7.06141e-11 -10.2786 0.731801 -0.0259123 -1.50302e-10 6.53645e-11 7.06005e-11 -2.22167 -0.733487 0.20892 -2.03217e-16 0.0 -3.88251e-19 0.969297 -6.54846 -0.32346 0.0298363 14.0973 0.191957 -1.05652 -2.88598 -4.29854 2.03217e-16 0.0 3.88251e-19 -1.93256 -2.37949 -2.86652 -0.0392683 4.74811 -0.0919207 1.61041 -2.48828 10.3046
19.5845 84.4179 18.6207 179.325 6.4728 174.684 -3.21436 6.6963 4.54534 -1.4337 0.163146 1.35134 8.40772 10.5346 2.8435 -8.24679 -20.3912 3.41569 -0.0 0.0 0.0 -0.0 0.0 0.0 2.06637e-14 4.44276e-14 -6.17164e-15 46.8439 18.4963 -2.97871 -11.087 -6.16866 17.8903 -0.0159964 -4.86834 -0.686257 -1.61259e-10 4.4848e-10 -2.96626e-10 -2.77683e-10 7.75033e-10 -5.15012e-10 -1.61255e-10 4.48481e-10 -2.96631e-10 7.73091 5.47488 0.417314 -1.61263e-10 4.48482e-10 -2.96624e-10 2.90554 0.965183 0.102902 -1.61253e-10 4.48482e-10 -2.96621e-10 10.2786 0.731801 0.0259123 -1.61263e-10 4.48483e-10 -2.96611e-10 2.22167 -0.733487 -0.20892 2.05481e-14 4.44319e-14 -6.563e-15 -40.1604 16.3753 -4.1657 7.90381 -3.64664 -13.118 0.00134338 1.09654 -0.154116 -3.70087e-10 1.38153e-10 1.45748e-10 -6.3899e-10 2.40285e-10 2.52665e-10 -3.70088e-10 1.38154e-10 1.45752e-10 -7.73091 5.47488 -0.417314 -3.70085e-10 1.38156e-10 1.45743e-10 -2.90554 0.965183 -0.102902 -3.70092e-10 1.38155e-10 1.45741e-10 -10.2786 0.731801 -0.0259123 -3.70077e-10 1.38159e-10 1.45733e-10 -2.22167 -0.733487 0.20892 -2.03217e-16 0.0 -3.88251e-19 1.08292 -8.77245 -0.532192 -0.0359874 26.4075 0.440532 -2.47084 -7.97468 -8.94099 2.03217e-16 0.0 3.88251e-19 -3.90758 -2.32143 -5.90968 -0.0529433 10.9939 -0.263011 5.19894 -8.3856 21.5681
19.7312 84.3452 18.5903 179.5 5.2977 174.011 -5.2825 9.74089 6.64294 -2.13923 0.226441 1.95009 11.8168 15.3225 4.235 -10.961 -29.6578 5.42594 -0.0 0.0 0.0 -0.0 0.0 0.0 2.66748e-14 6.38453e-14 -9.70745e-15 69.0373 27.0194 -4.63181 -14.9295 -8.51719 26.2896 -0.0622436 -7.3202 -1.03555 -2.5158e-10 6.36015e-10 -4.31612e-10 -4.33156e-10 1.0989e-09 -7.4935e-10 -2.51576e-10 6.36017e-10 -4.31614e-10 7.73091 5.47488 0.417314 -2.51585e-10 6.36018e-10 -4.31609e-10 2.90554 0.965183 0.102902 -2.51574e-10 6.36018e-10 -4.31604e-10 10.2786 0.731801 0.0259123 -2.51583e-10 6.3602e-10 -4.31596e-10 2.22167 -0.733487 -0.20892 2.65966e-14 6.38504e-14 -1.00483e-14 -57.7148 23.8481 -6.36349 11.0005 -5.17896 -19.2174 0.00335104 1.52717 -0.214679 -5.5064e-10 1.96033e-10 2.09463e-10 -9.50761e-10 3.40935e-10 3.63136e-10 -5.50641e-10 1.96033e-10 2.09467e-10 -7.73091 5.47488 -0.417314 -5.50638e-10 1.96036e-10 2.0946e-10 -2.90554 0.965183 -0.102902 -5.50645e-10 1.96036e-10 2.09458e-10 -10.2786 0.731801 -0.0259123 -5.50631e-10 1.96041e-10 2.09454e-10 -2.22167 -0.733487 0.20892 -2.03217e-16 0.0 -3.88251e-19 1.1307 -10.8217 -0.833357 -0.209427 37.4111 0.7315 -4.47606 -12.2954 -13.3792 2.03217e-16 0.0 3.88251e-19 -5.62963 -2.27932 -8.6455 -0.0321975 16.576 -0.424417 10.3171 -12.5976 31.9919
